<?xml version="1.0" encoding="UTF-8"?><svg id="D10" xmlns="http://www.w3.org/2000/svg" viewBox="0 0 256 256"><path d="M128,3L3,128l125,125,125-125L128,3ZM50.99,110.46l-27.21,8.78L95.31,47.72l-44.31,62.74ZM56.3,117.68l.27-.38,67.18,17.5v101.92L17.3,130.27l39.01-12.59ZM132.25,134.88l69.78-16.4,36.64,11.82-106.42,106.42v-101.84ZM204.87,110.46l-44.65-63.22,72.07,72.07-27.42-8.85ZM128.7,15.73l-.77.54,67.17,95.1-67.05,15.76-66.24-17.26L127.93,16.27l-.69-.49.76-.76.7.7ZM127.75,240.73h.5l-.25.25-.25-.25Z" fill="#4f3213"/><path d="M76.23,167.8c1.33-3.44,2.31-7.08,2.96-10.93.64-3.85.97-8.08.97-12.69v-49.1h-10.55l24.14-19.92v69.02c0,4.77.3,9.05.91,12.86.61,3.81,1.57,7.39,2.9,10.75h-21.33Z" fill="#4f3317"/><path d="M160.37,168.62c-9.53,0-17.31-4.21-23.35-12.63-6.04-8.42-9.05-19.4-9.05-32.96,0-6.09.56-11.68,1.67-16.76,1.11-5.08,2.78-9.65,5.01-13.71,2.73-5,6.42-8.99,11.04-11.98s9.38-4.48,14.27-4.48c10.08,0,18.18,4.2,24.32,12.6,6.13,8.4,9.2,19.61,9.2,33.63,0,6.06-.64,11.6-1.93,16.64s-3.24,9.65-5.86,13.83c-3.28,5.2-7.07,9.13-11.37,11.81-4.3,2.68-8.95,4.01-13.95,4.01ZM160.49,155.55c5.74,0,10.29-3.01,13.65-9.02,3.36-6.01,5.04-14.24,5.04-24.67s-1.62-18.38-4.86-24.08c-3.24-5.7-7.77-8.55-13.59-8.55s-10.5,2.89-13.8,8.67c-3.3,5.78-4.95,13.89-4.95,24.32s1.65,18.59,4.95,24.49c3.3,5.9,7.82,8.85,13.56,8.85Z" fill="#4f3317"/><path d="M76.23,167.8c1.33-3.44,2.31-7.08,2.96-10.93.64-3.85.97-8.08.97-12.69v-49.1h-10.55l24.14-19.92v69.02c0,4.77.3,9.05.91,12.86.61,3.81,1.57,7.39,2.9,10.75h-21.33Z" fill="none" stroke="#fff" stroke-linejoin="round" stroke-width="11.34"/><path d="M160.37,168.62c-9.53,0-17.31-4.21-23.35-12.63-6.04-8.42-9.05-19.4-9.05-32.96,0-6.09.56-11.68,1.67-16.76,1.11-5.08,2.78-9.65,5.01-13.71,2.73-5,6.42-8.99,11.04-11.98s9.38-4.48,14.27-4.48c10.08,0,18.18,4.2,24.32,12.6,6.13,8.4,9.2,19.61,9.2,33.63,0,6.06-.64,11.6-1.93,16.64s-3.24,9.65-5.86,13.83c-3.28,5.2-7.07,9.13-11.37,11.81-4.3,2.68-8.95,4.01-13.95,4.01ZM160.49,155.55c5.74,0,10.29-3.01,13.65-9.02,3.36-6.01,5.04-14.24,5.04-24.67s-1.62-18.38-4.86-24.08c-3.24-5.7-7.77-8.55-13.59-8.55s-10.5,2.89-13.8,8.67c-3.3,5.78-4.95,13.89-4.95,24.32s1.65,18.59,4.95,24.49c3.3,5.9,7.82,8.85,13.56,8.85Z" fill="none" stroke="#fff" stroke-linejoin="round" stroke-width="11.34"/><path d="M76.23,167.8c1.33-3.44,2.31-7.08,2.96-10.93.64-3.85.97-8.08.97-12.69v-49.1h-10.55l24.14-19.92v69.02c0,4.77.3,9.05.91,12.86.61,3.81,1.57,7.39,2.9,10.75h-21.33Z" fill="#4f3317"/><path d="M160.37,168.62c-9.53,0-17.31-4.21-23.35-12.63-6.04-8.42-9.05-19.4-9.05-32.96,0-6.09.56-11.68,1.67-16.76,1.11-5.08,2.78-9.65,5.01-13.71,2.73-5,6.42-8.99,11.04-11.98s9.38-4.48,14.27-4.48c10.08,0,18.18,4.2,24.32,12.6,6.13,8.4,9.2,19.61,9.2,33.63,0,6.06-.64,11.6-1.93,16.64s-3.24,9.65-5.86,13.83c-3.28,5.2-7.07,9.13-11.37,11.81-4.3,2.68-8.95,4.01-13.95,4.01ZM160.49,155.55c5.74,0,10.29-3.01,13.65-9.02,3.36-6.01,5.04-14.24,5.04-24.67s-1.62-18.38-4.86-24.08c-3.24-5.7-7.77-8.55-13.59-8.55s-10.5,2.89-13.8,8.67c-3.3,5.78-4.95,13.89-4.95,24.32s1.65,18.59,4.95,24.49c3.3,5.9,7.82,8.85,13.56,8.85Z" fill="#4f3317"/></svg>