<?xml version="1.0" encoding="UTF-8"?><svg id="D12" xmlns="http://www.w3.org/2000/svg" viewBox="0 0 256 256"><path d="M201.47,26.87L128,3,54.53,26.87,9.12,89.37v77.25s45.41,62.5,45.41,62.5l73.47,23.87,73.47-23.87,45.41-62.5v-77.25s-45.41-62.5-45.41-62.5ZM235.81,88.6l-24.79,10.3-78.77-57.23V13.32s63.96,20.78,63.96,20.78l39.59,54.49ZM175.62,195.66h-95.25l-29.43-90.59,77.06-55.98,77.06,55.98-29.43,90.59ZM59.78,34.11l63.96-20.78v28.35s-78.77,57.23-78.77,57.23l-24.79-10.3,39.59-54.49ZM17.62,163.86v-67.12s25.05,10.41,25.05,10.41l29.96,92.2-15.44,18.98-39.58-54.47ZM64.12,223.3l15.56-19.14h96.64l15.56,19.14-63.88,20.76-63.88-20.76ZM198.8,218.33l-15.44-18.98,29.96-92.2,25.06-10.41v67.12s-39.58,54.47-39.58,54.47Z" fill="#4f3213"/><path d="M76.23,167.8c1.33-3.44,2.31-7.08,2.96-10.93.64-3.85.97-8.08.97-12.69v-49.1h-10.55l24.14-19.92v69.02c0,4.77.3,9.05.91,12.86.61,3.81,1.57,7.39,2.9,10.75h-21.33Z" fill="#4f3317"/><path d="M148.94,156.78c10.94,0,19.75-.41,26.46-1.23,6.7-.82,11.81-2.09,15.32-3.81v16.05h-65.8c17.15-20.66,28.94-35.91,35.36-45.73,6.42-9.82,9.64-17.18,9.64-22.06,0-3.71-1.09-6.56-3.28-8.55-2.19-1.99-5.33-2.99-9.43-2.99-3.87,0-6.99,1.29-9.38,3.87-2.38,2.58-3.57,5.98-3.57,10.2,0,1.21.1,2.51.29,3.9.2,1.39.51,2.84.94,4.37l-12.83-7.91c-.04-.27-.07-.59-.09-.97-.02-.37-.03-.93-.03-1.67,0-6.83,2.45-12.57,7.35-17.2,4.9-4.63,11.01-6.94,18.31-6.94,7.73,0,14.02,2.16,18.87,6.47,4.84,4.32,7.27,9.89,7.27,16.73,0,8.01-9.53,24.24-28.59,48.69-2.97,3.83-5.24,6.76-6.8,8.79Z" fill="#4f3317"/><path d="M76.23,167.8c1.33-3.44,2.31-7.08,2.96-10.93.64-3.85.97-8.08.97-12.69v-49.1h-10.55l24.14-19.92v69.02c0,4.77.3,9.05.91,12.86.61,3.81,1.57,7.39,2.9,10.75h-21.33Z" fill="none" stroke="#fff" stroke-linejoin="round" stroke-width="11.34"/><path d="M148.94,156.78c10.94,0,19.75-.41,26.46-1.23,6.7-.82,11.81-2.09,15.32-3.81v16.05h-65.8c17.15-20.66,28.94-35.91,35.36-45.73,6.42-9.82,9.64-17.18,9.64-22.06,0-3.71-1.09-6.56-3.28-8.55-2.19-1.99-5.33-2.99-9.43-2.99-3.87,0-6.99,1.29-9.38,3.87-2.38,2.58-3.57,5.98-3.57,10.2,0,1.21.1,2.51.29,3.9.2,1.39.51,2.84.94,4.37l-12.83-7.91c-.04-.27-.07-.59-.09-.97-.02-.37-.03-.93-.03-1.67,0-6.83,2.45-12.57,7.35-17.2,4.9-4.63,11.01-6.94,18.31-6.94,7.73,0,14.02,2.16,18.87,6.47,4.84,4.32,7.27,9.89,7.27,16.73,0,8.01-9.53,24.24-28.59,48.69-2.97,3.83-5.24,6.76-6.8,8.79Z" fill="none" stroke="#fff" stroke-linejoin="round" stroke-width="11.34"/><path d="M76.23,167.8c1.33-3.44,2.31-7.08,2.96-10.93.64-3.85.97-8.08.97-12.69v-49.1h-10.55l24.14-19.92v69.02c0,4.77.3,9.05.91,12.86.61,3.81,1.57,7.39,2.9,10.75h-21.33Z" fill="#4f3317"/><path d="M148.94,156.78c10.94,0,19.75-.41,26.46-1.23,6.7-.82,11.81-2.09,15.32-3.81v16.05h-65.8c17.15-20.66,28.94-35.91,35.36-45.73,6.42-9.82,9.64-17.18,9.64-22.06,0-3.71-1.09-6.56-3.28-8.55-2.19-1.99-5.33-2.99-9.43-2.99-3.87,0-6.99,1.29-9.38,3.87-2.38,2.58-3.57,5.98-3.57,10.2,0,1.21.1,2.51.29,3.9.2,1.39.51,2.84.94,4.37l-12.83-7.91c-.04-.27-.07-.59-.09-.97-.02-.37-.03-.93-.03-1.67,0-6.83,2.45-12.57,7.35-17.2,4.9-4.63,11.01-6.94,18.31-6.94,7.73,0,14.02,2.16,18.87,6.47,4.84,4.32,7.27,9.89,7.27,16.73,0,8.01-9.53,24.24-28.59,48.69-2.97,3.83-5.24,6.76-6.8,8.79Z" fill="#4f3317"/></svg>