<?xml version="1.0" encoding="UTF-8"?><svg id="D20" xmlns="http://www.w3.org/2000/svg" viewBox="0 0 256 256"><path d="M128,3L19.75,65.5v125l108.25,62.5,108.25-62.5v-125L128,3ZM128,163.96H63.15l64.85-107.41,64.85,107.41h-64.85ZM190.49,172.46l-62.49,65.92-62.49-65.92h124.98ZM57.08,157.56l-23.53-84.99,85.75-18.06-62.22,103.05ZM136.7,54.51l85.75,18.06-23.53,84.99-62.22-103.05ZM132.25,44.88V15.27l80.74,46.61-80.74-17.01ZM123.75,44.88l-80.74,17.01L123.75,15.27v29.6ZM50.67,166.28l-22.42,13.93v-94.93l22.42,81ZM54.92,173.65l57.24,60.38-80.04-46.21,22.8-14.17ZM201.08,173.65l22.8,14.17-80.04,46.21,57.24-60.38ZM205.33,166.28l22.42-81v94.93l-22.42-13.93Z" fill="#4f3213"/><path d="M79.48,156.78c10.94,0,19.75-.41,26.46-1.23,6.7-.82,11.81-2.09,15.32-3.81v16.05H55.46c17.15-20.66,28.94-35.91,35.36-45.73,6.42-9.82,9.64-17.18,9.64-22.06,0-3.71-1.09-6.56-3.28-8.55-2.19-1.99-5.33-2.99-9.43-2.99-3.87,0-6.99,1.29-9.38,3.87-2.38,2.58-3.57,5.98-3.57,10.2,0,1.21.1,2.51.29,3.9.2,1.39.51,2.84.94,4.37l-12.83-7.91c-.04-.27-.07-.59-.09-.97-.02-.37-.03-.93-.03-1.67,0-6.83,2.45-12.57,7.35-17.2,4.9-4.63,11.01-6.94,18.31-6.94,7.73,0,14.02,2.16,18.87,6.47,4.84,4.32,7.27,9.89,7.27,16.73,0,8.01-9.53,24.24-28.59,48.69-2.97,3.83-5.24,6.76-6.8,8.79Z" fill="#4f3317"/><path d="M164.85,168.62c-9.53,0-17.31-4.21-23.35-12.63-6.04-8.42-9.05-19.4-9.05-32.96,0-6.09.56-11.68,1.67-16.76,1.11-5.08,2.78-9.65,5.01-13.71,2.73-5,6.42-8.99,11.04-11.98s9.38-4.48,14.27-4.48c10.08,0,18.18,4.2,24.32,12.6,6.13,8.4,9.2,19.61,9.2,33.63,0,6.06-.64,11.6-1.93,16.64s-3.24,9.65-5.86,13.83c-3.28,5.2-7.07,9.13-11.37,11.81-4.3,2.68-8.95,4.01-13.95,4.01ZM164.97,155.55c5.74,0,10.29-3.01,13.65-9.02,3.36-6.01,5.04-14.24,5.04-24.67s-1.62-18.38-4.86-24.08c-3.24-5.7-7.77-8.55-13.59-8.55s-10.5,2.89-13.8,8.67c-3.3,5.78-4.95,13.89-4.95,24.32s1.65,18.59,4.95,24.49c3.3,5.9,7.82,8.85,13.56,8.85Z" fill="#4f3317"/><path d="M79.48,156.78c10.94,0,19.75-.41,26.46-1.23,6.7-.82,11.81-2.09,15.32-3.81v16.05H55.46c17.15-20.66,28.94-35.91,35.36-45.73,6.42-9.82,9.64-17.18,9.64-22.06,0-3.71-1.09-6.56-3.28-8.55-2.19-1.99-5.33-2.99-9.43-2.99-3.87,0-6.99,1.29-9.38,3.87-2.38,2.58-3.57,5.98-3.57,10.2,0,1.21.1,2.51.29,3.9.2,1.39.51,2.84.94,4.37l-12.83-7.91c-.04-.27-.07-.59-.09-.97-.02-.37-.03-.93-.03-1.67,0-6.83,2.45-12.57,7.35-17.2,4.9-4.63,11.01-6.94,18.31-6.94,7.73,0,14.02,2.16,18.87,6.47,4.84,4.32,7.27,9.89,7.27,16.73,0,8.01-9.53,24.24-28.59,48.69-2.97,3.83-5.24,6.76-6.8,8.79Z" fill="none" stroke="#fff" stroke-linejoin="round" stroke-width="11.34"/><path d="M164.85,168.62c-9.53,0-17.31-4.21-23.35-12.63-6.04-8.42-9.05-19.4-9.05-32.96,0-6.09.56-11.68,1.67-16.76,1.11-5.08,2.78-9.65,5.01-13.71,2.73-5,6.42-8.99,11.04-11.98s9.38-4.48,14.27-4.48c10.08,0,18.18,4.2,24.32,12.6,6.13,8.4,9.2,19.61,9.2,33.63,0,6.06-.64,11.6-1.93,16.64s-3.24,9.65-5.86,13.83c-3.28,5.2-7.07,9.13-11.37,11.81-4.3,2.68-8.95,4.01-13.95,4.01ZM164.97,155.55c5.74,0,10.29-3.01,13.65-9.02,3.36-6.01,5.04-14.24,5.04-24.67s-1.62-18.38-4.86-24.08c-3.24-5.7-7.77-8.55-13.59-8.55s-10.5,2.89-13.8,8.67c-3.3,5.78-4.95,13.89-4.95,24.32s1.65,18.59,4.95,24.49c3.3,5.9,7.82,8.85,13.56,8.85Z" fill="none" stroke="#fff" stroke-linejoin="round" stroke-width="11.34"/><path d="M79.48,156.78c10.94,0,19.75-.41,26.46-1.23,6.7-.82,11.81-2.09,15.32-3.81v16.05H55.46c17.15-20.66,28.94-35.91,35.36-45.73,6.42-9.82,9.64-17.18,9.64-22.06,0-3.71-1.09-6.56-3.28-8.55-2.19-1.99-5.33-2.99-9.43-2.99-3.87,0-6.99,1.29-9.38,3.87-2.38,2.58-3.57,5.98-3.57,10.2,0,1.21.1,2.51.29,3.9.2,1.39.51,2.84.94,4.37l-12.83-7.91c-.04-.27-.07-.59-.09-.97-.02-.37-.03-.93-.03-1.67,0-6.83,2.45-12.57,7.35-17.2,4.9-4.63,11.01-6.94,18.31-6.94,7.73,0,14.02,2.16,18.87,6.47,4.84,4.32,7.27,9.89,7.27,16.73,0,8.01-9.53,24.24-28.59,48.69-2.97,3.83-5.24,6.76-6.8,8.79Z" fill="#4f3317"/><path d="M164.85,168.62c-9.53,0-17.31-4.21-23.35-12.63-6.04-8.42-9.05-19.4-9.05-32.96,0-6.09.56-11.68,1.67-16.76,1.11-5.08,2.78-9.65,5.01-13.71,2.73-5,6.42-8.99,11.04-11.98s9.38-4.48,14.27-4.48c10.08,0,18.18,4.2,24.32,12.6,6.13,8.4,9.2,19.61,9.2,33.63,0,6.06-.64,11.6-1.93,16.64s-3.24,9.65-5.86,13.83c-3.28,5.2-7.07,9.13-11.37,11.81-4.3,2.68-8.95,4.01-13.95,4.01ZM164.97,155.55c5.74,0,10.29-3.01,13.65-9.02,3.36-6.01,5.04-14.24,5.04-24.67s-1.62-18.38-4.86-24.08c-3.24-5.7-7.77-8.55-13.59-8.55s-10.5,2.89-13.8,8.67c-3.3,5.78-4.95,13.89-4.95,24.32s1.65,18.59,4.95,24.49c3.3,5.9,7.82,8.85,13.56,8.85Z" fill="#4f3317"/></svg>