<?xml version="1.0" encoding="UTF-8"?><svg id="D4" xmlns="http://www.w3.org/2000/svg" viewBox="0 0 256 256"><path d="M128,3L3,171.2l125,81.8,125-81.8L128,3ZM240.79,169.03l-108.54,71.02V22.98l108.54,146.05ZM123.75,22.98v217.08L15.21,169.03,123.75,22.98ZM128,242.84h0,0s0,0,0,0Z" fill="#4f3213"/><path d="M141.38,164.19c0,5.31.34,9.3,1.03,11.95.68,2.66,1.83,5.16,3.43,7.5h-21.15c1.6-2.38,2.74-4.96,3.43-7.73.68-2.77,1.03-6.68,1.03-11.72v-11.89h-38.26v-13.3c1.68-1.41,3.45-3.08,5.3-5.01,1.85-1.93,3.96-4.38,6.3-7.35l15.12-19.16c.94-1.17,2.22-3,3.84-5.48,1.62-2.48,3.54-5.54,5.77-9.17h15.47c-.43,1.84-.75,3.92-.97,6.24-.21,2.32-.32,5.24-.32,8.76v33.57c2.66,0,5.17-.14,7.53-.41,2.36-.27,4.62-.7,6.77-1.29l-.06,14.41c-2.19-.59-4.47-1.03-6.86-1.35-2.38-.31-4.84-.47-7.38-.47v11.89ZM103.83,141.39h25.31v-32.17l-25.31,32.17Z" fill="#4f3317"/><path d="M141.38,164.19c0,5.31.34,9.3,1.03,11.95.68,2.66,1.83,5.16,3.43,7.5h-21.15c1.6-2.38,2.74-4.96,3.43-7.73.68-2.77,1.03-6.68,1.03-11.72v-11.89h-38.26v-13.3c1.68-1.41,3.45-3.08,5.3-5.01,1.85-1.93,3.96-4.38,6.3-7.35l15.12-19.16c.94-1.17,2.22-3,3.84-5.48,1.62-2.48,3.54-5.54,5.77-9.17h15.47c-.43,1.84-.75,3.92-.97,6.24-.21,2.32-.32,5.24-.32,8.76v33.57c2.66,0,5.17-.14,7.53-.41,2.36-.27,4.62-.7,6.77-1.29l-.06,14.41c-2.19-.59-4.47-1.03-6.86-1.35-2.38-.31-4.84-.47-7.38-.47v11.89ZM103.83,141.39h25.31v-32.17l-25.31,32.17Z" fill="none" stroke="#fff" stroke-linejoin="round" stroke-width="11.34"/><path d="M141.38,164.19c0,5.31.34,9.3,1.03,11.95.68,2.66,1.83,5.16,3.43,7.5h-21.15c1.6-2.38,2.74-4.96,3.43-7.73.68-2.77,1.03-6.68,1.03-11.72v-11.89h-38.26v-13.3c1.68-1.41,3.45-3.08,5.3-5.01,1.85-1.93,3.96-4.38,6.3-7.35l15.12-19.16c.94-1.17,2.22-3,3.84-5.48,1.62-2.48,3.54-5.54,5.77-9.17h15.47c-.43,1.84-.75,3.92-.97,6.24-.21,2.32-.32,5.24-.32,8.76v33.57c2.66,0,5.17-.14,7.53-.41,2.36-.27,4.62-.7,6.77-1.29l-.06,14.41c-2.19-.59-4.47-1.03-6.86-1.35-2.38-.31-4.84-.47-7.38-.47v11.89ZM103.83,141.39h25.31v-32.17l-25.31,32.17Z" fill="#4f3317"/></svg>