<?xml version="1.0" encoding="UTF-8"?><svg id="D6" xmlns="http://www.w3.org/2000/svg" viewBox="0 0 256 256"><path d="M128,3L19.75,65.5v125l108.25,62.5,108.25-62.5v-125L128,3ZM225.52,69.12l-97.51,54.01L30.95,68.85,128,12.82l97.52,56.3ZM28.25,77.09l95.5,53.41v110.23l-95.5-55.14v-108.5ZM132.25,240.73v-110.22l95.5-52.9v107.98l-95.5,55.14Z" fill="#4f3213"/><path d="M149.65,92.82c-2.66,2.31-5.33,5.02-8.03,8.14-2.7,3.13-5.53,6.76-8.5,10.9l-12.36,17.4c.2,0,.55-.04,1.05-.12,2.42-.23,4.14-.35,5.16-.35,7.3,0,13.41,2.56,18.31,7.68,4.9,5.12,7.35,11.45,7.35,18.98,0,3.75-.69,7.32-2.08,10.72-1.39,3.4-3.41,6.47-6.06,9.2-2.89,2.97-6.18,5.22-9.87,6.77s-7.61,2.31-11.75,2.31c-8.09,0-14.88-2.69-20.39-8.06-5.51-5.37-8.26-12.04-8.26-20.01,0-2.7.35-5.37,1.05-8.03.7-2.66,1.76-5.21,3.16-7.68,2.03-3.63,6.23-9.98,12.6-19.04,3.2-4.53,5.68-8.07,7.44-10.61,3.24-4.69,5.44-8.32,6.59-10.9,1.15-2.58,1.79-5.02,1.9-7.32h22.68ZM123.63,172.1c4.49,0,8.15-1.48,10.99-4.45,2.83-2.97,4.25-6.83,4.25-11.6s-1.38-8.48-4.13-11.37c-2.75-2.89-6.34-4.34-10.75-4.34-4.69,0-8.55,1.56-11.57,4.69-3.03,3.13-4.54,7.11-4.54,11.95,0,4.49,1.46,8.14,4.39,10.93,2.93,2.79,6.72,4.19,11.37,4.19Z" fill="#4f3317"/><path d="M149.65,92.82c-2.66,2.31-5.33,5.02-8.03,8.14-2.7,3.13-5.53,6.76-8.5,10.9l-12.36,17.4c.2,0,.55-.04,1.05-.12,2.42-.23,4.14-.35,5.16-.35,7.3,0,13.41,2.56,18.31,7.68,4.9,5.12,7.35,11.45,7.35,18.98,0,3.75-.69,7.32-2.08,10.72-1.39,3.4-3.41,6.47-6.06,9.2-2.89,2.97-6.18,5.22-9.87,6.77s-7.61,2.31-11.75,2.31c-8.09,0-14.88-2.69-20.39-8.06-5.51-5.37-8.26-12.04-8.26-20.01,0-2.7.35-5.37,1.05-8.03.7-2.66,1.76-5.21,3.16-7.68,2.03-3.63,6.23-9.98,12.6-19.04,3.2-4.53,5.68-8.07,7.44-10.61,3.24-4.69,5.44-8.32,6.59-10.9,1.15-2.58,1.79-5.02,1.9-7.32h22.68ZM123.63,172.1c4.49,0,8.15-1.48,10.99-4.45,2.83-2.97,4.25-6.83,4.25-11.6s-1.38-8.48-4.13-11.37c-2.75-2.89-6.34-4.34-10.75-4.34-4.69,0-8.55,1.56-11.57,4.69-3.03,3.13-4.54,7.11-4.54,11.95,0,4.49,1.46,8.14,4.39,10.93,2.93,2.79,6.72,4.19,11.37,4.19Z" fill="none" stroke="#fff" stroke-linejoin="round" stroke-width="11.34"/><path d="M149.65,92.82c-2.66,2.31-5.33,5.02-8.03,8.14-2.7,3.13-5.53,6.76-8.5,10.9l-12.36,17.4c.2,0,.55-.04,1.05-.12,2.42-.23,4.14-.35,5.16-.35,7.3,0,13.41,2.56,18.31,7.68,4.9,5.12,7.35,11.45,7.35,18.98,0,3.75-.69,7.32-2.08,10.72-1.39,3.4-3.41,6.47-6.06,9.2-2.89,2.97-6.18,5.22-9.87,6.77s-7.61,2.31-11.75,2.31c-8.09,0-14.88-2.69-20.39-8.06-5.51-5.37-8.26-12.04-8.26-20.01,0-2.7.35-5.37,1.05-8.03.7-2.66,1.76-5.21,3.16-7.68,2.03-3.63,6.23-9.98,12.6-19.04,3.2-4.53,5.68-8.07,7.44-10.61,3.24-4.69,5.44-8.32,6.59-10.9,1.15-2.58,1.79-5.02,1.9-7.32h22.68ZM123.63,172.1c4.49,0,8.15-1.48,10.99-4.45,2.83-2.97,4.25-6.83,4.25-11.6s-1.38-8.48-4.13-11.37c-2.75-2.89-6.34-4.34-10.75-4.34-4.69,0-8.55,1.56-11.57,4.69-3.03,3.13-4.54,7.11-4.54,11.95,0,4.49,1.46,8.14,4.39,10.93,2.93,2.79,6.72,4.19,11.37,4.19Z" fill="#4f3317"/></svg>