<?xml version="1.0" encoding="UTF-8"?><svg id="D8" xmlns="http://www.w3.org/2000/svg" viewBox="0 0 256 256"><path d="M128,3L3,128l125,125,125-125L128,3ZM132.25,19.28l106.81,106.81-106.81,41.88V19.28ZM123.75,167.93L17.36,125.67,123.75,19.28v148.65ZM123.75,177.08v59.64L24.81,137.78l98.94,39.3ZM132.25,177.1l98.08-38.46-98.08,98.08v-59.63Z" fill="#4f3213"/><path d="M112.3,135.86c-3.4-2.5-5.91-5.23-7.53-8.2-1.62-2.97-2.43-6.33-2.43-10.08,0-7.15,2.54-13.13,7.62-17.96,5.08-4.82,11.39-7.24,18.93-7.24s13.58,2.29,18.37,6.88c4.78,4.59,7.18,10.42,7.18,17.49,0,4.1-.86,7.78-2.58,11.04-1.72,3.26-4.22,5.91-7.5,7.94,4.34,2.03,7.56,4.86,9.67,8.5s3.16,8.14,3.16,13.54c0,7.81-2.75,14.29-8.26,19.42-5.51,5.14-12.48,7.71-20.92,7.71s-14.89-2.43-20.07-7.29c-5.18-4.86-7.76-11.14-7.76-18.84,0-4.96,1.02-9.35,3.05-13.18,2.03-3.83,5.06-7.07,9.08-9.73ZM128.88,172.3c4.45,0,8.09-1.35,10.9-4.04s4.22-6.19,4.22-10.49-1.45-7.7-4.34-10.31c-2.89-2.62-6.68-3.93-11.37-3.93-4.38,0-7.93,1.32-10.66,3.96-2.73,2.64-4.1,5.99-4.1,10.05s1.46,7.64,4.39,10.49c2.93,2.85,6.58,4.28,10.96,4.28ZM129.12,131.99c3.91,0,7.06-1.27,9.46-3.81,2.4-2.54,3.6-5.86,3.6-9.96,0-4.37-1.16-7.81-3.49-10.31-2.32-2.5-5.52-3.75-9.58-3.75s-7.68,1.3-10.37,3.9c-2.7,2.6-4.04,5.91-4.04,9.93s1.38,7.36,4.13,10.02c2.75,2.66,6.18,3.98,10.28,3.98Z" fill="#4f3317"/><path d="M112.3,135.86c-3.4-2.5-5.91-5.23-7.53-8.2-1.62-2.97-2.43-6.33-2.43-10.08,0-7.15,2.54-13.13,7.62-17.96,5.08-4.82,11.39-7.24,18.93-7.24s13.58,2.29,18.37,6.88c4.78,4.59,7.18,10.42,7.18,17.49,0,4.1-.86,7.78-2.58,11.04-1.72,3.26-4.22,5.91-7.5,7.94,4.34,2.03,7.56,4.86,9.67,8.5s3.16,8.14,3.16,13.54c0,7.81-2.75,14.29-8.26,19.42-5.51,5.14-12.48,7.71-20.92,7.71s-14.89-2.43-20.07-7.29c-5.18-4.86-7.76-11.14-7.76-18.84,0-4.96,1.02-9.35,3.05-13.18,2.03-3.83,5.06-7.07,9.08-9.73ZM128.88,172.3c4.45,0,8.09-1.35,10.9-4.04s4.22-6.19,4.22-10.49-1.45-7.7-4.34-10.31c-2.89-2.62-6.68-3.93-11.37-3.93-4.38,0-7.93,1.32-10.66,3.96-2.73,2.64-4.1,5.99-4.1,10.05s1.46,7.64,4.39,10.49c2.93,2.85,6.58,4.28,10.96,4.28ZM129.12,131.99c3.91,0,7.06-1.27,9.46-3.81,2.4-2.54,3.6-5.86,3.6-9.96,0-4.37-1.16-7.81-3.49-10.31-2.32-2.5-5.52-3.75-9.58-3.75s-7.68,1.3-10.37,3.9c-2.7,2.6-4.04,5.91-4.04,9.93s1.38,7.36,4.13,10.02c2.75,2.66,6.18,3.98,10.28,3.98Z" fill="none" stroke="#fff" stroke-linejoin="round" stroke-width="11.34"/><path d="M112.3,135.86c-3.4-2.5-5.91-5.23-7.53-8.2-1.62-2.97-2.43-6.33-2.43-10.08,0-7.15,2.54-13.13,7.62-17.96,5.08-4.82,11.39-7.24,18.93-7.24s13.58,2.29,18.37,6.88c4.78,4.59,7.18,10.42,7.18,17.49,0,4.1-.86,7.78-2.58,11.04-1.72,3.26-4.22,5.91-7.5,7.94,4.34,2.03,7.56,4.86,9.67,8.5s3.16,8.14,3.16,13.54c0,7.81-2.75,14.29-8.26,19.42-5.51,5.14-12.48,7.71-20.92,7.71s-14.89-2.43-20.07-7.29c-5.18-4.86-7.76-11.14-7.76-18.84,0-4.96,1.02-9.35,3.05-13.18,2.03-3.83,5.06-7.07,9.08-9.73ZM128.88,172.3c4.45,0,8.09-1.35,10.9-4.04s4.22-6.19,4.22-10.49-1.45-7.7-4.34-10.31c-2.89-2.62-6.68-3.93-11.37-3.93-4.38,0-7.93,1.32-10.66,3.96-2.73,2.64-4.1,5.99-4.1,10.05s1.46,7.64,4.39,10.49c2.93,2.85,6.58,4.28,10.96,4.28ZM129.12,131.99c3.91,0,7.06-1.27,9.46-3.81,2.4-2.54,3.6-5.86,3.6-9.96,0-4.37-1.16-7.81-3.49-10.31-2.32-2.5-5.52-3.75-9.58-3.75s-7.68,1.3-10.37,3.9c-2.7,2.6-4.04,5.91-4.04,9.93s1.38,7.36,4.13,10.02c2.75,2.66,6.18,3.98,10.28,3.98Z" fill="#4f3317"/></svg>