<?xml version="1.0" encoding="UTF-8"?><svg id="Vector_Text_Line" xmlns="http://www.w3.org/2000/svg" viewBox="0 0 2048 409.81"><g id="Bakgrund"><path d="M1024.73,0s13.38,14.3,36.57,25.26c26.35,12.46,43.61,14.1,55.92,13.99,0,0,278.75-.26,305.59,0,37.11.36,53.07-10.37,53.07-10.37,0,0,13.25,23.99,49.41,42.7s73.8,17.69,73.8,17.69l184.01.61c63.24-.61,122.19-21.96,122.19-21.96,0,0,27.57,55.79,53.39,83.94,24.02,26.19,90.06,78,90.06,78,0,0-61.72,47.88-89.78,78.99s-53.68,82.95-53.68,82.95c0,0-65.42-21.35-96.14-21.35h-669.35c-13.41,0-40.44-.64-65.27,9.15-32.56,12.84-49.79,30.2-49.79,30.2" fill="#e72e32"/><path d="M1024,0s-13.38,14.3-36.57,25.26c-26.35,12.46-43.61,14.1-55.92,13.99,0,0-278.75-.26-305.59,0-37.11.36-53.07-10.37-53.07-10.37,0,0-13.25,23.99-49.41,42.7s-73.8,17.69-73.8,17.69l-184.01.61c-63.24-.61-122.19-21.96-122.19-21.96,0,0-27.57,55.79-53.39,83.94C66.03,178.04,0,229.86,0,229.86c0,0,61.72,47.88,89.78,78.99s53.68,82.95,53.68,82.95c0,0,65.42-21.35,96.14-21.35h669.35c13.41,0,40.44-.64,65.27,9.15,32.56,12.84,49.79,30.2,49.79,30.2" fill="#e72e32"/></g><path d="M241.06,160.39h-105.31l36.29,36.38v102.57s53.46-.01,70.54-.01,65.08-15.76,65.08-69.41c0-50.83-44.17-69.53-66.61-69.53ZM235.58,263.22h-22.03v-66.83h22.03c7.29,0,30.06,6.06,30.06,33.47s-24.26,33.36-30.06,33.36Z" fill="#fff"/><path d="M780.79,299.34v-86.37l-18.32-18.32h52.02l1.68,10.26c6.43-6.48,26.99-12.64,37.89-12.64v38.31c-7.97,0-34.82,5.73-34.82,14.26v54.49h-38.45Z" fill="#fff"/><path d="M481.89,194.5l-1.26,6.57c-6.29-5.59-10.77-8.81-24.05-8.81-34.54,0-49.78,32.44-49.78,50.2v11.61c0,13.7,10.49,47.12,46.84,47.82,11.05,0,21.53-4.75,27.13-8.11l3.08,5.55h31.46v-104.83h-33.42ZM461.89,266.1c-6.01,0-17.2-2.24-17.2-17.48,0-14.12,8.95-20,18.46-20,10.35,0,14.4,11.05,14.4,18.46,0,8.39-5.45,19.02-15.66,19.02Z" fill="#fff"/><path d="M536.31,299.34v-121.14l-17.57-17.57h56v71.07l37.43-37.43h40.44l-39.69,43.96c7.54,15.07,35.42,79.12,87.91,76.11,0,0-26.51,16.47-59.53,4.52-26.37-9.54-40.48-28.76-54-52.75l-12.31,12.82v20.42h-38.68Z" fill="#fff"/><path d="M725.43,194.5l-1.26,6.57c-6.29-5.59-10.77-8.81-24.05-8.81-34.54,0-49.78,32.44-49.78,50.2v11.61c0,13.7,10.49,47.12,46.84,47.82,11.05,0,21.53-4.75,27.13-8.11l3.08,5.55h31.46v-104.83h-33.42ZM705.43,266.1c-6.01,0-17.2-2.24-17.2-17.48,0-14.12,8.95-20,18.46-20,10.35,0,14.4,11.05,14.4,18.46,0,8.39-5.45,19.02-15.66,19.02Z" fill="#fff"/><path d="M327.84,299.34v-86.37l-18.32-18.32h52.02l1.68,10.26c6.43-6.48,26.99-12.64,37.89-12.64v38.31c-7.97,0-34.82,5.73-34.82,14.26v54.49h-38.45Z" fill="#fff"/><path d="M1085.15,160.39h-105.31l36.29,36.38v102.57s53.46-.01,70.54-.01,65.08-15.76,65.08-69.41c0-50.83-44.17-69.53-66.61-69.53ZM1079.67,263.22h-22.03v-66.83h22.03c7.29,0,30.06,6.06,30.06,33.47s-24.26,33.36-30.06,33.36Z" fill="#fff"/><path d="M1840.25,299.34v-86.37l-18.32-18.32h52.02l1.68,10.26c6.43-6.48,26.99-12.64,37.89-12.64v38.31c-7.97,0-34.82,5.73-34.82,14.26v54.49h-38.45Z" fill="#fff"/><path d="M871.62,260.45c-10.56,0-19.71,7.18-19.71,20.28,0,14.08,10.42,20.14,20.42,20.14s19.99-6.76,19.99-20.21-9.15-20.21-20.7-20.21ZM872.11,287.16c-4.01,0-6.27-3.97-6.27-6.5s1.63-6.65,6.27-6.65c3.93,0,6.35,3.27,6.35,6.65s-2.34,6.5-6.35,6.5Z" fill="#fff"/><path d="M924.39,279.14s-1.79-5.14-6.69-5.14-6.23,3.04-6.23,6.23,2.18,6.93,5.76,6.93,7.94-3.74,7.94-3.74l10.74,4.44s-4.9,13-18.53,13-20.01-10.59-20.01-20.63,6.38-19.78,19.27-19.78,17.87,9.04,19.81,13.55l-12.07,5.14Z" fill="#fff"/><path d="M943.54,299.34v-50.32h13.93v14.56s5.22-3.29,10.82-3.12,13.78,3.74,13.78,11.37v27.51h-13.86v-23.54s-1.4-2.41-4.52-2.41-6.31,4.44-6.31,4.44v21.51h-13.86Z" fill="#fff"/><path d="M1217.01,192.27c-44.34,0-55.16,34.63-55.16,53.53s10.66,57.31,54.73,57.31,52.8-35.61,52.8-35.61l-30.02-8.73s-3.49,10.47-17.46,10.47-21.3-9.78-21.3-15.36h70.17c6.63-24.07-9.43-61.61-53.76-61.61ZM1200.95,233.98s3.84-11.17,18.15-11.17,15.01,11.17,15.01,11.17h-33.17Z" fill="#fff"/><path d="M1285.79,299.34v-86.3l-18.68-18.68h55.33l2.44,6.11s12.92-8.2,28.98-8.2,28.63,11.34,29.67,14.13c0,0,17.46-14.65,37.7-14.13s39.45,10.64,39.45,34.38v72.69h-38.75v-61.16s0-9.78-8.73-9.78-20.95,8.96-20.95,17.4v53.54h-39.45v-65.35s-.35-5.59-8.38-5.59-20.25,8.26-20.25,17.4v53.54h-38.4Z" fill="#fff"/><path id="D20O" d="M1528.03,192.27c-30.61,0-55.42,24.81-55.42,55.42s24.81,55.42,55.42,55.42,55.42-24.81,55.42-55.42-24.81-55.42-55.42-55.42ZM1530.37,205.95l25.31,14.34-25.31-2.48v-11.86ZM1563.64,226.48l-11.86,29.56-18.76-32.57,30.62,3.01ZM1547.62,259.47h-39.1l19.5-33.86,19.6,33.86ZM1525.23,205.95v11.86l-24.25,2.48,24.25-14.34ZM1522.93,223.47l-18.94,32.57-11.86-29.56,30.8-3.01ZM1491.25,237.63l9.73,23.19-10.62,5.31.88-28.5ZM1493.37,270.37l9.73-4.25,14.69,18.23-24.43-13.98ZM1508.52,264.89h39.1l-19.55,24.25-19.55-24.25ZM1538.68,284.36l14.34-18.23,9.2,4.25-23.54,13.98ZM1565.59,266.13l-9.91-5.31,9.91-23.19v28.5Z" fill="#fff"/><path d="M1597.75,299.34v-86.22l-18.45-18.45h54.46l2.4,5.81s13.69-8.21,27.13-8.21,41.06,8.81,41.06,31.2v75.87h-38.9v-64.28s-2.4-7.68-10.32-7.68-18.97,6.96-18.97,13.69v58.28h-38.42Z" fill="#fff"/><path d="M1770.86,192.27c-44.34,0-55.16,34.63-55.16,53.53s10.66,57.31,54.73,57.31,52.8-35.61,52.8-35.61l-30.02-8.73s-3.49,10.47-17.46,10.47-21.3-9.78-21.3-15.36h70.17c6.63-24.07-9.43-61.61-53.76-61.61ZM1754.8,233.98s3.84-11.17,18.15-11.17,15.01,11.17,15.01,11.17h-33.17Z" fill="#fff"/></svg>