<?xml version="1.0" encoding="UTF-8"?><svg id="Vector_Text_Box" xmlns="http://www.w3.org/2000/svg" viewBox="0 0 1024 340"><path d="M255.49,1.95h-105.31l36.29,36.38v102.57s53.46-.01,70.54-.01,65.08-15.76,65.08-69.41c0-50.83-44.17-69.53-66.61-69.53ZM250.01,104.78h-22.03V37.95h22.03c7.29,0,30.06,6.06,30.06,33.47s-24.26,33.36-30.06,33.36Z" fill="#e72e32"/><path d="M795.22,140.89V54.52l-18.32-18.32h52.02l1.68,10.26c6.43-6.48,26.99-12.64,37.89-12.64v38.31c-7.97,0-34.82,5.73-34.82,14.26v54.49h-38.45Z" fill="#e72e32"/><path d="M496.32,36.06l-1.26,6.57c-6.29-5.59-10.77-8.81-24.05-8.81-34.54,0-49.78,32.44-49.78,50.2v11.61c0,13.7,10.49,47.12,46.84,47.82,11.05,0,21.53-4.75,27.13-8.11l3.08,5.55h31.46V36.06h-33.42ZM476.32,107.66c-6.01,0-17.2-2.24-17.2-17.48,0-14.12,8.95-20,18.46-20,10.35,0,14.4,11.05,14.4,18.46,0,8.39-5.45,19.02-15.66,19.02Z" fill="#e72e32"/><path d="M550.74,140.89V19.75l-17.57-17.57h56v71.07l37.43-37.43h40.44l-39.69,43.96c7.54,15.07,35.42,79.12,87.91,76.11,0,0-26.51,16.47-59.53,4.52-26.37-9.54-40.48-28.76-54-52.75l-12.31,12.82v20.42h-38.68Z" fill="#e72e32"/><path d="M739.86,36.06l-1.26,6.57c-6.29-5.59-10.77-8.81-24.05-8.81-34.54,0-49.78,32.44-49.78,50.2v11.61c0,13.7,10.49,47.12,46.84,47.82,11.05,0,21.53-4.75,27.13-8.11l3.08,5.55h31.46V36.06h-33.42ZM719.87,107.66c-6.01,0-17.2-2.24-17.2-17.48,0-14.12,8.95-20,18.46-20,10.35,0,14.4,11.05,14.4,18.46,0,8.39-5.45,19.02-15.66,19.02Z" fill="#e72e32"/><path d="M342.27,140.89V54.52l-18.32-18.32h52.02l1.68,10.26c6.43-6.48,26.99-12.64,37.89-12.64v38.31c-7.97,0-34.82,5.73-34.82,14.26v54.49h-38.45Z" fill="#e72e32"/><path d="M147.81,196.1H42.5l36.29,36.38v102.57s53.46-.01,70.54-.01,65.08-15.76,65.08-69.41c0-50.83-44.17-69.53-66.61-69.53ZM142.33,298.93h-22.03v-66.83h22.03c7.29,0,30.06,6.06,30.06,33.47s-24.26,33.36-30.06,33.36Z" fill="#e72e32"/><path d="M902.91,335.04v-86.37l-18.32-18.32h52.02l1.68,10.26c6.43-6.48,26.99-12.64,37.89-12.64v38.31c-7.97,0-34.82,5.73-34.82,14.26v54.49h-38.45Z" fill="#e72e32"/><path d="M463.97,168.17c-10.56,0-19.71,7.18-19.71,20.28,0,14.08,10.42,20.14,20.42,20.14s19.99-6.76,19.99-20.21-9.15-20.21-20.7-20.21ZM464.46,194.88c-4.01,0-6.27-3.97-6.27-6.5s1.63-6.65,6.27-6.65c3.93,0,6.35,3.27,6.35,6.65s-2.34,6.5-6.35,6.5Z" fill="#e72e32"/><path d="M516.74,186.87s-1.79-5.14-6.69-5.14-6.23,3.04-6.23,6.23,2.18,6.93,5.76,6.93,7.94-3.74,7.94-3.74l10.74,4.44s-4.9,13-18.53,13-20.01-10.59-20.01-20.63,6.38-19.78,19.27-19.78,17.87,9.04,19.81,13.55l-12.07,5.14Z" fill="#e72e32"/><path d="M535.89,207.06v-50.32h13.93v14.56s5.22-3.29,10.82-3.12,13.78,3.74,13.78,11.37v27.51h-13.86v-23.54s-1.4-2.41-4.52-2.41-6.31,4.44-6.31,4.44v21.51h-13.86Z" fill="#e72e32"/><path d="M279.67,227.98c-44.34,0-55.16,34.63-55.16,53.53s10.66,57.31,54.73,57.31,52.8-35.61,52.8-35.61l-30.02-8.73s-3.49,10.47-17.46,10.47-21.3-9.78-21.3-15.36h70.17c6.63-24.07-9.43-61.61-53.76-61.61ZM263.61,269.69s3.84-11.17,18.15-11.17,15.01,11.17,15.01,11.17h-33.17Z" fill="#e72e32"/><path d="M348.44,335.04v-86.3l-18.68-18.68h55.33l2.44,6.11s12.92-8.2,28.98-8.2,28.63,11.34,29.67,14.13c0,0,17.46-14.65,37.7-14.13,20.25.52,39.45,10.64,39.45,34.38v72.69h-38.75v-61.16s0-9.78-8.73-9.78-20.95,8.96-20.95,17.4v53.54h-39.45v-65.35s-.35-5.59-8.38-5.59-20.25,8.26-20.25,17.4v53.54h-38.4Z" fill="#e72e32"/><path d="M590.68,227.98c-30.61,0-55.42,24.81-55.42,55.42s24.81,55.42,55.42,55.42,55.42-24.81,55.42-55.42-24.81-55.42-55.42-55.42ZM593.02,241.66l25.31,14.34-25.31-2.48v-11.86ZM626.3,262.19l-11.86,29.56-18.76-32.57,30.62,3.01ZM610.28,295.18h-39.1l19.5-33.86,19.6,33.86ZM587.89,241.66v11.86l-24.25,2.48,24.25-14.34ZM585.59,259.18l-18.94,32.57-11.86-29.56,30.8-3.01ZM553.91,273.34l9.73,23.19-10.62,5.31.89-28.5ZM556.03,306.08l9.73-4.25,14.69,18.23-24.43-13.98ZM571.18,300.59h39.1l-19.55,24.25-19.55-24.25ZM601.34,320.06l14.34-18.23,9.2,4.25-23.54,13.98ZM628.24,301.83l-9.91-5.31,9.91-23.19v28.5Z" fill="#e72e32"/><path d="M660.4,335.04v-86.22l-18.45-18.45h54.46l2.4,5.81s13.69-8.21,27.13-8.21,41.06,8.81,41.06,31.2v75.87h-38.9v-64.28s-2.4-7.68-10.32-7.68-18.97,6.96-18.97,13.69v58.28h-38.42Z" fill="#e72e32"/><path d="M833.51,227.98c-44.34,0-55.16,34.63-55.16,53.53s10.66,57.31,54.73,57.31,52.8-35.61,52.8-35.61l-30.02-8.73s-3.49,10.47-17.46,10.47-21.3-9.78-21.3-15.36h70.17c6.63-24.07-9.43-61.61-53.76-61.61ZM817.46,269.69s3.84-11.17,18.15-11.17,15.01,11.17,15.01,11.17h-33.17Z" fill="#e72e32"/></svg>