<?xml version="1.0" encoding="UTF-8"?><svg id="editor" xmlns="http://www.w3.org/2000/svg" viewBox="0 0 256 256"><path d="M89.33,102.97h164.91l-2.64,12.44s-51.02,7.99-65.39,18.15c-25.94,18.33-16.81,35.51-14.17,40.76,2.49,4.97,19.25,28.32,40.73,28.32v12.44h-28.32s-14.44-5.66-32.76-5.66-42.14,5.66-42.14,5.66h-31.58v-10.93s36.87-12.69,36.87-32.56c0-12.57-7.54-16.3-26.37-17.31-28.9-1.54-67.39-27.81-86.72-39.05l1.84-3.59h64.25v-4.52h21.49v-4.15Z" fill="#4f3213"/><path d="M121.63,80.74V26.99l4.02-4.02h27.13l4.02,4.02v53.75l-4.02,4.02h-27.13l-4.02-4.02Z" fill="#4f3213"/><path d="M164.64,62.32h-3.59l-2.25-2.25v-12.41l2.25-2.25h3.59l2.25,2.25v12.41l-2.25,2.25Z" fill="#4f3213"/><rect x="169.57" y="48.34" width="60.1" height="11.05" fill="#4f3213"/><rect x="232.34" y="48.12" width="3.52" height="11.27" fill="#4f3213"/><path d="M244.15,61.87h-3.36l-2.25-2.25v-11.5l2.25-2.25h3.36l2.25,2.25v11.5l-2.25,2.25Z" fill="#4f3213"/></svg>