<?xml version="1.0" encoding="UTF-8"?><svg id="editor_hover" xmlns="http://www.w3.org/2000/svg" viewBox="0 0 256 256"><path d="M133.09,98.82l-16.73-51.08c1-1.98,1.57-3.09,2.57-5.07l25.78-8.44,5.07,2.57,16.73,51.08-2.57,5.07-25.78,8.44-5.07-2.57Z" fill="#4f3213"/><path d="M168.23,67.93l-3.41,1.12-2.84-1.44-3.86-11.8,1.44-2.84,3.41-1.12,2.84,1.44,3.86,11.8-1.44,2.84Z" fill="#4f3213"/><rect x="168.79" y="43.49" width="60.1" height="11.05" transform="translate(-5.38 64.31) rotate(-18.13)" fill="#4f3213"/><rect x="229.82" y="32.54" width="3.52" height="11.27" transform="translate(-.38 73.96) rotate(-18.13)" fill="#4f3213"/><path d="M243.65,42.76l-3.19,1.05-2.84-1.44-3.58-10.93,1.44-2.84,3.19-1.05,2.84,1.44,3.58,10.93-1.44,2.84Z" fill="#4f3213"/><polygon points="122.98 99.88 111.33 67.81 109.12 86.09 90.47 74.4 105.92 91.19 83.02 99.33 122.98 99.88" fill="#4f3213"/><polygon points="203.13 99.33 186.71 89.44 203.13 69.05 179.98 85.68 184.15 67.24 166.5 99.33 203.13 99.33" fill="#4f3213"/><path d="M186.22,133.56c14.37-10.16,65.39-18.15,65.39-18.15l2.64-12.44H89.33v4.15h-21.49v4.52H3.59l-1.84,3.59c19.33,11.24,57.82,37.51,86.72,39.05,18.84,1,26.37,4.74,26.37,17.31,0,19.87-36.87,32.56-36.87,32.56v10.93h31.58s23.82-5.66,42.14-5.66,32.76,5.66,32.76,5.66h28.32v-12.44c-21.49,0-38.24-23.35-40.73-28.32-2.64-5.25-11.77-22.43,14.17-40.76ZM150.07,114.11l5.92,16.24-14.56-16.02-13.43,16.02,3.19-16.57-19.75,4.94,20.84-9.87h17.12l21.5,10.75-20.84-5.49Z" fill="#4f3213"/></svg>