<?xml version="1.0" encoding="UTF-8"?><svg id="forbattring_hover" xmlns="http://www.w3.org/2000/svg" viewBox="0 0 256 256"><path d="M245.82,85.15v107.36c-.63.8-.81,5.62-6.31,6.63l-78.33,12.93c-23.97,4.36-24.51,2.1-25,1.93L54.79,113.16l-.86-2.89,4.38-43.93,1-1.75,30.85-22.74,3.11.13,20.06,17.61.67.96,9.35,23.85.16,1.1-1.86,24.06,1.76,3.3,27.52,15.48,1.91,2.1,7,16.09,4.39-.15h0s.03-1.65.03-1.65l-6.18-18.25.13-2.39,32.21-34.11,1.01-.87,51.27-6.33,3.11,2.37Z" fill="#4f3213"/><polygon points="87.8 35.52 93.85 6.84 83.4 6.07 87.8 35.52" fill="#4f3213"/><polygon points="66.51 33.89 57.3 6.07 47.88 10.67 66.51 33.89" fill="#4f3213"/><polygon points="51.77 47.7 31.74 26.31 25.12 34.44 51.77 47.7" fill="#4f3213"/><polygon points="47.88 64.03 19.81 55.61 18.17 65.97 47.88 64.03" fill="#4f3213"/><polygon points="50.83 82.71 21.84 87.03 24.77 97.1 50.83 82.71" fill="#4f3213"/></svg>