<?xml version="1.0" encoding="UTF-8"?><svg id="Hjälm" xmlns="http://www.w3.org/2000/svg" viewBox="0 0 512 445"><path d="M368.2,312.63c-4.22-22.61-2.78-120.86-5.27-136.92-5.27-34.02-103.71-68.18-103.71-68.18,0,0-98.44,34.15-103.71,68.18-2.49,16.06-1.04,114.3-5.27,136.92s-21.94,17.55-21.94,17.55c0,0,49.47,107.06,85.13,107.06h23.92l.66-81.02-45.64-24.57-2.38-29.63,69.23,28.41,69.23-28.41-2.38,29.63-45.64,24.57.66,81.02h23.92c35.66,0,85.13-107.06,85.13-107.06,0,0-17.72,5.06-21.94-17.55Z" fill="#f2e9df" stroke="#a87942" stroke-miterlimit="10" stroke-width="8.5"/><text transform="translate(185.02 201.63) rotate(-58.24)" fill="#4f2f18" font-family="Flareserif821BT-Roman, &apos;Flareserif821 BT&apos;" font-size="28"><tspan x="0" y="0">S</tspan></text><text transform="translate(192.1 189.69) rotate(-47.33)" fill="#4f2f18" font-family="Flareserif821BT-Roman, &apos;Flareserif821 BT&apos;" font-size="28"><tspan x="0" y="0">K</tspan></text><text transform="translate(203.91 176.93) rotate(-36.38)" fill="#4f2f18" font-family="Flareserif821BT-Roman, &apos;Flareserif821 BT&apos;" font-size="28"><tspan x="0" y="0">Y</tspan></text><text transform="translate(215.8 167.86) rotate(-24.92)" fill="#4f2f18" font-family="Flareserif821BT-Roman, &apos;Flareserif821 BT&apos;" font-size="28"><tspan x="0" y="0">D</tspan></text><text transform="translate(232.26 160.11) rotate(-12.28)" fill="#4f2f18" font-family="Flareserif821BT-Roman, &apos;Flareserif821 BT&apos;" font-size="28"><tspan x="0" y="0">D</tspan></text><text transform="translate(250.2 156.36) rotate(-1.18)" fill="#4f2f18" font-family="Flareserif821BT-Roman, &apos;Flareserif821 BT&apos;" font-size="28"><tspan x="0" y="0">S</tspan></text><text transform="translate(264.07 155.77) rotate(9.93)" fill="#4f2f18" font-family="Flareserif821BT-Roman, &apos;Flareserif821 BT&apos;" font-size="28"><tspan x="0" y="0">V</tspan></text><text transform="translate(282.26 158.81) rotate(22.97)" fill="#4f2f18" font-family="Flareserif821BT-Roman, &apos;Flareserif821 BT&apos;" font-size="28"><tspan x="0" y="0">Ä</tspan></text><text transform="translate(299.92 166.38) rotate(35.22)" fill="#4f2f18" font-family="Flareserif821BT-Roman, &apos;Flareserif821 BT&apos;" font-size="28"><tspan x="0" y="0">R</tspan></text><text transform="translate(313.3 175.6) rotate(47.05)" fill="#4f2f18" font-family="Flareserif821BT-Roman, &apos;Flareserif821 BT&apos;" font-size="28"><tspan x="0" y="0">D</tspan></text><text transform="translate(325.66 189.07) rotate(58.2)" fill="#4f2f18" font-family="Flareserif821BT-Roman, &apos;Flareserif821 BT&apos;" font-size="28"><tspan x="0" y="0">E</tspan></text><text transform="translate(171.27 70.36)" fill="#4f2f18" font-family="Flareserif821BT-Roman, &apos;Flareserif821 BT&apos;" font-size="52" letter-spacing="0em"><tspan x="0" y="0">HJÄLM</tspan></text></svg>