<?xml version="1.0" encoding="UTF-8"?><svg id="Banner" xmlns="http://www.w3.org/2000/svg" xmlns:xlink="http://www.w3.org/1999/xlink" viewBox="0 0 2048 512"><defs><linearGradient id="linear-gradient" x1="1595.79" y1="145.19" x2="1844.86" y2="211.21" gradientTransform="translate(2048) rotate(-180) scale(1 -1)" gradientUnits="userSpaceOnUse"><stop offset="0" stop-color="#b6a28d"/><stop offset=".27" stop-color="#b19c87"/><stop offset=".62" stop-color="#a38c77"/><stop offset="1" stop-color="#8e735f"/></linearGradient><linearGradient id="linear-gradient-2" x1="1593.4" y1="191.27" x2="1989.43" y2="153.19" gradientTransform="translate(2048) rotate(-180) scale(1 -1)" gradientUnits="userSpaceOnUse"><stop offset="0" stop-color="#47382e"/><stop offset=".03" stop-color="#4f4036"/><stop offset=".11" stop-color="#65554a"/><stop offset=".22" stop-color="#76665a"/><stop offset=".34" stop-color="#827165"/><stop offset=".52" stop-color="#89786c"/><stop offset="1" stop-color="#8b7a6e"/></linearGradient><linearGradient id="linear-gradient-3" x1="1025.81" y1="340.72" x2="1824.44" y2="293.79" gradientTransform="translate(2048) rotate(-180) scale(1 -1)" gradientUnits="userSpaceOnUse"><stop offset="0" stop-color="#dbceaf"/><stop offset=".6" stop-color="#d9ccad"/><stop offset=".81" stop-color="#d3c5a6"/><stop offset=".97" stop-color="#c9ba9a"/><stop offset="1" stop-color="#c6b797"/></linearGradient><linearGradient id="linear-gradient-4" x1="1595.79" x2="1844.86" y2="211.21" gradientTransform="matrix(1,0,0,1,0,0)" xlink:href="#linear-gradient"/><linearGradient id="linear-gradient-5" x1="1593.4" x2="1989.43" y2="153.19" gradientTransform="matrix(1,0,0,1,0,0)" xlink:href="#linear-gradient-2"/><linearGradient id="linear-gradient-6" gradientTransform="matrix(1,0,0,1,0,0)" xlink:href="#linear-gradient-3"/></defs><path d="M456.82,103.7c-.91,19.39-16.6,91.14-20.69,100.75s-7.48,16.98-7.48,16.98l-190.13-34.03-39.38-45.14,257.67-38.57Z" fill="url(#linear-gradient)"/><path d="M224,284.34c0-33.76-165.04-23.3-165.04-23.3l81.89-105.65L58.96,55.06s116.05-9.15,222.87,4.8c146.76,19.17,181.7,36.89,173.99,47.44-13.98,19.11-241.13,21.09-231.82,52.55v124.48Z" fill="url(#linear-gradient-2)"/><path d="M1024,227.27c-382.98,0-784.52-26.95-800-67.41v227c0,16.44,65.89,31.21,95.34,37.18,106.22,21.52,428.86,35.84,704.66,35.84" fill="url(#linear-gradient-3)"/><path d="M1591.18,103.7c.91,19.39,16.6,91.14,20.69,100.75s7.48,16.98,7.48,16.98l190.13-34.03,39.38-45.14-257.67-38.57Z" fill="url(#linear-gradient-4)"/><path d="M1824,284.34c0-33.76,165.04-23.3,165.04-23.3l-81.89-105.65,81.89-100.32s-116.05-9.15-222.87,4.8c-146.76,19.17-181.7,36.89-173.99,47.44,13.98,19.11,241.13,21.09,231.82,52.55v124.48Z" fill="url(#linear-gradient-5)"/><path d="M1024,227.27c382.98,0,784.52-26.95,800-67.41v227c0,16.44-65.89,31.21-95.34,37.18-106.22,21.52-428.86,35.84-704.66,35.84" fill="url(#linear-gradient-6)"/></svg>