<?xml version="1.0" encoding="UTF-8"?><svg id="Rustning" xmlns="http://www.w3.org/2000/svg" viewBox="0 0 512 445"><path d="M256,410.17c-28.23,0-53.18-7.15-53.18-7.15l-8.73,16.9-64.42-34.94s3.28-12.01,10.92-27.29c7.64-15.29,42.58-44.16,42.58-44.16l-23.33-81.35-21.88-12.57-29.03-46.01,9.83-10.92s-7.64-13.1,8.73-31.66,34.94-13.1,34.94-13.1l20.74,13.1s26.01-.84,25.17-15.1c0,0,29.01-8.39,47.73-8.39s47.66,8.39,47.66,8.39c-.84,14.26,25.17,15.1,25.17,15.1l20.74-13.1s18.56-5.46,34.94,13.1,8.73,31.66,8.73,31.66l9.83,10.92-29.03,46.01-21.88,12.57-23.33,81.35s34.94,28.88,42.58,44.16c7.64,15.29,10.92,27.29,10.92,27.29l-64.42,34.94-8.73-16.9s-25.02,7.15-53.24,7.15Z" fill="#f2e9df" stroke="#a87942" stroke-miterlimit="10" stroke-width="8.5"/><text transform="translate(181.79 201.63) rotate(-58.24)" fill="#4f2f18" font-family="Flareserif821BT-Roman, &apos;Flareserif821 BT&apos;" font-size="28"><tspan x="0" y="0">S</tspan></text><text transform="translate(188.88 189.69) rotate(-47.33)" fill="#4f2f18" font-family="Flareserif821BT-Roman, &apos;Flareserif821 BT&apos;" font-size="28"><tspan x="0" y="0">K</tspan></text><text transform="translate(200.68 176.93) rotate(-36.38)" fill="#4f2f18" font-family="Flareserif821BT-Roman, &apos;Flareserif821 BT&apos;" font-size="28"><tspan x="0" y="0">Y</tspan></text><text transform="translate(212.57 167.86) rotate(-24.92)" fill="#4f2f18" font-family="Flareserif821BT-Roman, &apos;Flareserif821 BT&apos;" font-size="28"><tspan x="0" y="0">D</tspan></text><text transform="translate(229.03 160.11) rotate(-12.28)" fill="#4f2f18" font-family="Flareserif821BT-Roman, &apos;Flareserif821 BT&apos;" font-size="28"><tspan x="0" y="0">D</tspan></text><text transform="translate(246.97 156.36) rotate(-1.18)" fill="#4f2f18" font-family="Flareserif821BT-Roman, &apos;Flareserif821 BT&apos;" font-size="28"><tspan x="0" y="0">S</tspan></text><text transform="translate(260.84 155.77) rotate(9.93)" fill="#4f2f18" font-family="Flareserif821BT-Roman, &apos;Flareserif821 BT&apos;" font-size="28"><tspan x="0" y="0">V</tspan></text><text transform="translate(279.04 158.81) rotate(22.97)" fill="#4f2f18" font-family="Flareserif821BT-Roman, &apos;Flareserif821 BT&apos;" font-size="28"><tspan x="0" y="0">Ä</tspan></text><text transform="translate(296.7 166.38) rotate(35.22)" fill="#4f2f18" font-family="Flareserif821BT-Roman, &apos;Flareserif821 BT&apos;" font-size="28"><tspan x="0" y="0">R</tspan></text><text transform="translate(310.07 175.6) rotate(47.05)" fill="#4f2f18" font-family="Flareserif821BT-Roman, &apos;Flareserif821 BT&apos;" font-size="28"><tspan x="0" y="0">D</tspan></text><text transform="translate(322.43 189.07) rotate(58.2)" fill="#4f2f18" font-family="Flareserif821BT-Roman, &apos;Flareserif821 BT&apos;" font-size="28"><tspan x="0" y="0">E</tspan></text><text transform="translate(118.45 70.36)" fill="#4f2f18" font-family="Flareserif821BT-Roman, &apos;Flareserif821 BT&apos;" font-size="52" letter-spacing="0em"><tspan x="0" y="0">RUSTNING</tspan></text></svg>